<svg width="14" height="14" viewBox="0 0 14 14" fill="none" xmlns="http://www.w3.org/2000/svg">
<path d="M1 3.62614C0.723858 3.62614 0.5 3.85 0.5 4.12614C0.5 4.40228 0.723858 4.62614 1 4.62614V3.62614ZM13 4.62614C13.2761 4.62614 13.5 4.40228 13.5 4.12614C13.5 3.85 13.2761 3.62614 13 3.62614V4.62614ZM2.33333 4.12614V3.62614H1.83333V4.12614H2.33333ZM11.6667 4.12614H12.1667V3.62614H11.6667V4.12614ZM11.2279 10.6579L11.7083 10.7966L11.2279 10.6579ZM8.1493 13.3413L8.23262 13.8343H8.23262L8.1493 13.3413ZM5.85067 13.3413L5.93399 12.8483L5.93398 12.8483L5.85067 13.3413ZM5.74551 13.3235L5.6622 13.8165H5.6622L5.74551 13.3235ZM2.7721 10.6579L2.29171 10.7966L2.7721 10.6579ZM8.25448 13.3235L8.17117 12.8305L8.25448 13.3235ZM4.22836 3.09734L4.68222 3.30712L4.22836 3.09734ZM4.87868 2.22516L4.54499 1.85279L4.54499 1.85279L4.87868 2.22516ZM5.85195 1.64239L6.02595 2.11114V2.11114L5.85195 1.64239ZM8.14805 1.64239L8.32205 1.17364V1.17364L8.14805 1.64239ZM9.77164 3.09734L10.2255 2.88755L9.77164 3.09734ZM1 4.62614H13V3.62614H1V4.62614ZM8.17117 12.8305L8.06599 12.8483L8.23262 13.8343L8.33779 13.8165L8.17117 12.8305ZM5.93398 12.8483L5.82882 12.8305L5.6622 13.8165L5.76736 13.8343L5.93398 12.8483ZM11.1667 4.12614V7.55496H12.1667V4.12614H11.1667ZM2.83333 7.55498V4.12614H1.83333V7.55498H2.83333ZM11.1667 7.55496C11.1667 8.55811 11.0255 9.55616 10.7475 10.5193L11.7083 10.7966C12.0123 9.7433 12.1667 8.65189 12.1667 7.55496H11.1667ZM8.06599 12.8483C7.36024 12.9676 6.63974 12.9676 5.93399 12.8483L5.76736 13.8343C6.58341 13.9722 7.41656 13.9722 8.23262 13.8343L8.06599 12.8483ZM5.82882 12.8305C4.60349 12.6235 3.60105 11.7267 3.25248 10.5193L2.29171 10.7966C2.74585 12.3698 4.05444 13.5449 5.6622 13.8165L5.82882 12.8305ZM3.25248 10.5193C2.97446 9.55616 2.83333 8.55812 2.83333 7.55498H1.83333C1.83333 8.65189 1.98765 9.74329 2.29171 10.7966L3.25248 10.5193ZM8.33779 13.8165C9.94554 13.5449 11.2541 12.3698 11.7083 10.7966L10.7475 10.5193C10.3989 11.7267 9.3965 12.6235 8.17117 12.8305L8.33779 13.8165ZM4.5 4.12614C4.5 3.84686 4.5613 3.56874 4.68222 3.30712L3.7745 2.88755C3.5939 3.27827 3.5 3.69933 3.5 4.12614H4.5ZM4.68222 3.30712C4.80324 3.0453 4.98238 2.80362 5.21237 2.59752L4.54499 1.85279C4.21783 2.14598 3.95501 2.49703 3.7745 2.88755L4.68222 3.30712ZM5.21237 2.59752C5.44246 2.39132 5.71851 2.22525 6.02595 2.11114L5.67796 1.17364C5.25744 1.32973 4.87205 1.55971 4.54499 1.85279L5.21237 2.59752ZM6.02595 2.11114C6.33341 1.99701 6.66454 1.93774 7 1.93774V0.937744C6.54753 0.937744 6.09844 1.01756 5.67796 1.17364L6.02595 2.11114ZM7 1.93774C7.33546 1.93774 7.66659 1.99701 7.97406 2.11114L8.32205 1.17364C7.90156 1.01756 7.45247 0.937744 7 0.937744V1.93774ZM7.97406 2.11114C8.28149 2.22525 8.55754 2.39132 8.78763 2.59752L9.45501 1.8528C9.12795 1.55971 8.74256 1.32973 8.32205 1.17364L7.97406 2.11114ZM8.78763 2.59752C9.01762 2.80362 9.19676 3.0453 9.31778 3.30712L10.2255 2.88755C10.045 2.49703 9.78217 2.14598 9.45501 1.8528L8.78763 2.59752ZM9.31778 3.30712C9.4387 3.56874 9.5 3.84686 9.5 4.12614H10.5C10.5 3.69933 10.4061 3.27827 10.2255 2.88755L9.31778 3.30712ZM2.33333 4.62614H11.6667V3.62614H2.33333V4.62614Z" fill="#FF0000" fill-opacity="0.8"/>
</svg>
